<svg xmlns="http://www.w3.org/2000/svg" viewBox="0 0 360 50" fill="none">
  <!-- Hopus Icon -->
  <rect x="0" y="9" width="32" height="32" rx="8" fill="#5d00de"/>
  <path d="M16 15c-5.5 0-10 4.5-10 10s4.5 10 10 10 10-4.5 10-10-4.5-10-10-10zm0 18c-4.4 0-8-3.6-8-8s3.6-8 8-8 8 3.6 8 8-3.6 8-8 8z" fill="white"/>
  <path d="M16 19c-3.3 0-6 2.7-6 6s2.7 6 6 6 6-2.7 6-6-2.7-6-6-6zm0 10c-2.2 0-4-1.8-4-4s1.8-4 4-4 4 1.8 4 4-1.8 4-4 4z" fill="white" opacity="0.7"/>
  <circle cx="16" cy="25" r="2" fill="white"/>

  <!-- Hopus Text -->
  <text x="44" y="35" font-family="system-ui, -apple-system, sans-serif" font-size="28" font-weight="700" fill="white">Hopus</text>

  <!-- Meet Text -->
  <text x="140" y="35" font-family="system-ui, -apple-system, sans-serif" font-size="28" font-weight="400" fill="#5d00de">Meet</text>
</svg>
