<svg xmlns="http://www.w3.org/2000/svg" viewBox="0 0 180 180" fill="none">
  <rect width="180" height="180" rx="40" fill="#5d00de"/>
  <path d="M90 30c-33 0-60 27-60 60s27 60 60 60 60-27 60-60-27-60-60-60zm0 108c-26.4 0-48-21.6-48-48s21.6-48 48-48 48 21.6 48 48-21.6 48-48 48z" fill="white"/>
  <path d="M90 54c-19.8 0-36 16.2-36 36s16.2 36 36 36 36-16.2 36-36-16.2-36-36-36zm0 60c-13.2 0-24-10.8-24-24s10.8-24 24-24 24 10.8 24 24-10.8 24-24 24z" fill="white" opacity="0.7"/>
  <circle cx="90" cy="90" r="12" fill="white"/>
</svg>
